<svg xmlns="http://www.w3.org/2000/svg" viewBox="0 0 1114 545"><path fill="#fff" d="M0 0h1114v545H0z"/><g stroke-linecap="round"><path fill="#fff" d="m239 193-1 2-1 1-3 1-4 1a55 55 0 0 1-9 2 120 120 0 0 1-47-5l-3-1-1-2-1-1 1-2 1-1 3-1 3-2a55 55 0 0 1 10-1 106 106 0 0 1 23 0 121 121 0 0 1 21 3 30 30 0 0 1 6 3l1 2 1 1"/><path fill="none" stroke="#1e1e1e" d="m239 193-1 2-1 1-3 1-4 1a55 55 0 0 1-9 2 120 120 0 0 1-47-5l-3-1-1-2-1-1 1-2 1-1 3-1 3-2a55 55 0 0 1 10-1 106 106 0 0 1 23 0 121 121 0 0 1 21 3 30 30 0 0 1 6 3l1 2 1 1s0 0 0 0"/></g><g fill="none" stroke-linecap="round"><path stroke="#ffec99" stroke-width=".5" d="M372 195s0 0 0 0m0 0s0 0 0 0m0 6c3-1 5-6 9-10m-9 10 9-10m-6 14 20-24m-20 24 20-24m-18 27c11-9 19-24 31-36m-31 36 31-36m-27 38c11-16 28-31 41-47m-41 47c15-19 31-38 41-47m-38 50c15-20 30-36 51-60m-51 60c11-15 24-29 51-60m-48 62c21-23 41-49 63-72m-63 72c17-21 37-41 63-72m-60 75c23-30 47-56 78-90m-78 90c31-34 60-68 78-90m-75 92 82-95m-82 95c22-23 42-48 82-95m-79 97 84-96m-84 96c28-34 59-69 84-96m-80 98c19-25 41-45 83-96m-83 96c21-24 43-48 83-96m-80 99c30-34 61-66 84-97m-84 97 84-97m-81 100 84-97m-84 97c28-31 57-64 84-97m-80 98 84-96m-84 96 84-96m-81 99c22-23 41-49 84-97m-84 97 84-97m-81 99 84-97m-84 97c24-26 46-53 84-97m-81 100c35-40 69-77 85-98m-85 98 85-98m-81 99 84-96m-84 96 84-96m-81 99c28-29 53-57 85-97m-85 97 85-97m-81 99c30-32 57-69 84-97m-84 97 84-97m-81 100 84-98m-84 98c24-27 47-57 84-98m-80 99c31-36 63-70 83-96m-83 96 83-96m-80 99 84-97m-84 97c20-21 38-44 84-97m-81 99c25-33 55-61 84-97m-84 97 84-97m-81 100 84-97m-84 97 84-97m-80 98c21-26 44-48 83-95m-83 95 83-95m-80 98c25-30 52-58 84-97m-84 97 84-97m-80 99c23-26 49-54 83-96m-83 96 83-96m-80 99 83-96m-83 96 83-96m-80 97c24-28 50-59 84-95m-84 95c24-24 45-52 84-95m-80 97 83-95m-83 95c32-39 66-76 83-95m-79 97c21-23 40-44 82-95m-82 95c27-29 51-58 82-95m-77 95c15-20 34-38 80-92m-80 92c26-33 55-65 80-92m-73 91c30-33 59-67 76-89m-76 89 76-89m-73 90c25-30 52-61 77-88m-77 88c15-19 32-37 77-88m-64 80c23-25 41-50 67-77m-67 77 67-77m-54 68c22-27 46-50 57-66m-57 66c19-22 37-45 57-66m-44 57 48-55m-48 55 48-55m-35 47c8-13 20-25 37-43m-37 43c9-12 19-22 37-43m-24 33c9-12 19-22 27-31m-27 31c9-8 16-18 27-31m-202 11s0 0 0 0m0 0s0 0 0 0m13 6c-2-3-5-7-16-14m16 14-16-14m44 33c-16-13-27-26-43-38m43 38-43-38m87 71c-34-29-64-54-85-74m85 74-85-74m95 77c-34-29-67-56-92-80m92 80c-34-29-69-58-92-80m98 81-95-83m95 83c-32-29-64-58-95-83m102 83c-37-33-76-64-98-85m98 85c-27-22-53-45-98-85m101 83c-25-20-46-41-98-86m98 86-98-86m102 83c-34-29-66-59-99-85m99 85c-31-29-63-55-99-85m102 83c-21-20-40-37-98-85m98 85c-39-32-78-68-98-85m101 82c-36-31-71-65-98-85m98 85-98-85m102 83c-24-18-43-40-98-85m98 85c-35-29-68-60-98-85m101 83c-32-26-61-55-98-86m98 86c-30-28-62-54-98-86m101 83c-33-27-63-54-98-85m98 85-98-85m102 83c-22-21-44-41-98-85m98 85-98-85m101 83c-22-20-47-43-98-86m98 86c-34-32-69-60-98-86m102 83c-33-25-62-53-99-85m99 85c-25-20-46-40-99-85m102 83c-23-21-42-38-98-85m98 85-98-85m101 83-98-86m98 86-98-86m102 83-98-85m98 85-98-85m101 83c-25-20-49-44-98-85m98 85c-33-31-67-61-98-85m102 83-99-86m99 86c-22-21-45-39-99-86m103 84c-32-30-63-56-99-86m99 86-99-86m102 83c-32-26-62-50-99-86m99 86c-25-20-50-42-99-86m102 84-99-86m99 86-99-86m103 84c-29-25-56-51-99-86m99 86c-35-28-68-58-99-86m102 83c-36-34-76-66-99-86m99 86c-34-28-66-57-99-86m102 84-98-86m98 86c-32-28-61-55-98-86m102 84c-36-34-76-62-99-86m99 86-99-86m102 83-99-86m99 86c-20-18-42-34-99-86m103 84c-35-31-73-65-99-86m99 86-99-86m101 83c-35-34-73-64-96-84m96 84c-35-30-72-61-96-84m100 81c-23-23-53-44-96-83m96 83-96-83m99 81c-24-21-51-47-93-81m93 81-93-81m96 78c-27-21-52-48-74-64m74 64-74-64m75 60c-6-6-15-15-39-34m39 34-39-34"/><path stroke="#1e1e1e" d="M503 140c14 13 31 25 55 39m-55-39 55 39m0 0c29 19 25 19 0 40m0-40c29 19 29 20 0 40m0 0-55 37m55-37c-16 12-32 22-55 37m0 0c-29 19-27 21-56 0m56 0c-29 22-30 18-56 0m0 0-55-37m55 37-55-37m0 0c-30-22-29-22 0-40m0 40c-29-18-26-21 0-40m0 0c23-15 43-31 55-39m-55 39 55-39m0 0c30-19 29-18 56 0m-56 0c26-21 29-22 56 0"/></g><text fill="#1e1e1e" dominant-baseline="text-before-edge" font-family="Virgil, Segoe UI Emoji" font-size="63.1" style="white-space:pre" transform="translate(395.408440341065 156.68851076162719) rotate(0 77.15196990966797 39.44531249999997)">Color</text><g stroke-linecap="round"><path fill="#fff" d="M299 189v1l-2 2-3 1a29 29 0 0 1-7 1 81 81 0 0 1-22-1 122 122 0 0 1-24-7 28 28 0 0 1-5-4l-2-1v-2l1-1 1-2 3-1a28 28 0 0 1 8-1 73 73 0 0 1 15 1 137 137 0 0 1 27 6 54 54 0 0 1 7 3l2 2 1 1v2"/><path fill="none" stroke="#1e1e1e" d="M299 189v1l-2 2-3 1a29 29 0 0 1-7 1 81 81 0 0 1-22-1 122 122 0 0 1-24-7 28 28 0 0 1-5-4l-2-1v-2l1-1 1-2 3-1a28 28 0 0 1 8-1 73 73 0 0 1 15 1 137 137 0 0 1 27 6 54 54 0 0 1 7 3l2 2 1 1v2s0 0 0 0"/></g><g stroke-linecap="round"><path fill="#fff" d="M282 203a15 15 0 0 1-2 8l-3 3a28 28 0 0 1-8 6 48 48 0 0 1-11 5 68 68 0 0 1-20 3 92 92 0 0 1-33-5 57 57 0 0 1-15-9 28 28 0 0 1-5-7 17 17 0 0 1-2-7 15 15 0 0 1 2-8l3-3a28 28 0 0 1 8-6 48 48 0 0 1 11-5 69 69 0 0 1 19-3 91 91 0 0 1 34 5 60 60 0 0 1 10 5 38 38 0 0 1 8 7 21 21 0 0 1 3 7l1 4c0 1 0 0 0 0"/><path fill="none" stroke="#1e1e1e" d="M282 203a15 15 0 0 1-2 8l-3 3a28 28 0 0 1-8 6 48 48 0 0 1-11 5 68 68 0 0 1-20 3 92 92 0 0 1-33-5 57 57 0 0 1-15-9 28 28 0 0 1-5-7 17 17 0 0 1-2-7 15 15 0 0 1 2-8l3-3a28 28 0 0 1 8-6 48 48 0 0 1 11-5 69 69 0 0 1 19-3 91 91 0 0 1 34 5 60 60 0 0 1 10 5 38 38 0 0 1 8 7 21 21 0 0 1 3 7l1 4c0 1 0 0 0 0"/></g><g stroke-linecap="round"><path fill="#fff" d="M265 227v1l-2 2-2 1a24 24 0 0 1-6 1 66 66 0 0 1-14 2 117 117 0 0 1-27-4 24 24 0 0 1-4-2l-2-2v-2l2-1 2-1a26 26 0 0 1 6-2 59 59 0 0 1 14-1 117 117 0 0 1 23 2 45 45 0 0 1 7 2l2 2 1 1v1"/><path fill="none" stroke="#1e1e1e" d="M265 227v1l-2 2-2 1a24 24 0 0 1-6 1 66 66 0 0 1-14 2 117 117 0 0 1-27-4 24 24 0 0 1-4-2l-2-2v-2l2-1 2-1a26 26 0 0 1 6-2 59 59 0 0 1 14-1 117 117 0 0 1 23 2 45 45 0 0 1 7 2l2 2 1 1v1s0 0 0 0"/></g><g stroke-linecap="round"><path fill="#fff" d="M308 207v1l-2 1-3 1a29 29 0 0 1-7 2 81 81 0 0 1-22-2 122 122 0 0 1-24-6 28 28 0 0 1-5-4l-2-2v-1l1-2 1-1 3-1a28 28 0 0 1 8-1 73 73 0 0 1 15 0 137 137 0 0 1 27 6 54 54 0 0 1 7 4l2 1 1 2v2s0-1 0 0"/><path fill="none" stroke="#1e1e1e" d="M308 207v1l-2 1-3 1a29 29 0 0 1-7 2 81 81 0 0 1-22-2 122 122 0 0 1-24-6 28 28 0 0 1-5-4l-2-2v-1l1-2 1-1 3-1a28 28 0 0 1 8-1 73 73 0 0 1 15 0 137 137 0 0 1 27 6 54 54 0 0 1 7 4l2 1 1 2v2s0-1 0 0"/></g><g stroke-linecap="round"><path fill="#fff" d="M301 189v3l-2 2-2 3a22 22 0 0 1-7 4 41 41 0 0 1-10 2 53 53 0 0 1-16 0 53 53 0 0 1-15-4 31 31 0 0 1-6-4l-3-3-1-3a9 9 0 0 1 0-5l2-3 2-3a23 23 0 0 1 7-4 41 41 0 0 1 10-2 53 53 0 0 1 16 0 53 53 0 0 1 14 4 31 31 0 0 1 7 4l3 3 1 3v3s0-1 0 0"/><path fill="none" stroke="#1e1e1e" d="M301 189v3l-2 2-2 3a22 22 0 0 1-7 4 41 41 0 0 1-10 2 53 53 0 0 1-16 0 53 53 0 0 1-15-4 31 31 0 0 1-6-4l-3-3-1-3a9 9 0 0 1 0-5l2-3 2-3a23 23 0 0 1 7-4 41 41 0 0 1 10-2 53 53 0 0 1 16 0 53 53 0 0 1 14 4 31 31 0 0 1 7 4l3 3 1 3v3s0-1 0 0"/></g><g stroke-linecap="round"><path fill="#fff" d="m229 199-1 3-2 2-3 3-4 2a40 40 0 0 1-10 4 70 70 0 0 1-20 1 85 85 0 0 1-25-4 40 40 0 0 1-8-5l-3-3-2-3a8 8 0 0 1 0-6l2-3 3-3 4-2a42 42 0 0 1 11-3 74 74 0 0 1 19-2 90 90 0 0 1 25 5 42 42 0 0 1 9 5l3 3 1 3 1 3s0-1 0 0"/><path fill="none" stroke="#1e1e1e" d="m229 199-1 3-2 2-3 3-4 2a40 40 0 0 1-10 4 70 70 0 0 1-20 1 85 85 0 0 1-25-4 40 40 0 0 1-8-5l-3-3-2-3a8 8 0 0 1 0-6l2-3 3-3 4-2a42 42 0 0 1 11-3 74 74 0 0 1 19-2 90 90 0 0 1 25 5 42 42 0 0 1 9 5l3 3 1 3 1 3s0-1 0 0"/></g><g stroke-linecap="round"><path fill="#fff" d="m267 231-1 2-1 2-2 2a20 20 0 0 1-6 3 37 37 0 0 1-9 1 63 63 0 0 1-27-3 30 30 0 0 1-6-3l-2-2-1-2a5 5 0 0 1 0-4l1-2 3-1a20 20 0 0 1 6-3 43 43 0 0 1 13-2 64 64 0 0 1 22 3 30 30 0 0 1 6 3l2 2 2 2v2c0 1 0 0 0 0"/><path fill="none" stroke="#1e1e1e" d="m267 231-1 2-1 2-2 2a20 20 0 0 1-6 3 37 37 0 0 1-9 1 63 63 0 0 1-27-3 30 30 0 0 1-6-3l-2-2-1-2a5 5 0 0 1 0-4l1-2 3-1a20 20 0 0 1 6-3 43 43 0 0 1 13-2 64 64 0 0 1 22 3 30 30 0 0 1 6 3l2 2 2 2v2c0 1 0 0 0 0"/></g><g stroke-linecap="round"><path fill="#fff" d="m263 184-1 3-1 3-3 3-4 3a36 36 0 0 1-10 4 56 56 0 0 1-18 2 67 67 0 0 1-24-5 36 36 0 0 1-8-6l-2-3-2-3a11 11 0 0 1 2-10l3-3 4-3a36 36 0 0 1 10-4 56 56 0 0 1 18-2 67 67 0 0 1 23 5 36 36 0 0 1 8 6l3 3 2 3v4s0-1 0 0"/><path fill="none" stroke="#1e1e1e" d="m263 184-1 3-1 3-3 3-4 3a36 36 0 0 1-10 4 56 56 0 0 1-18 2 67 67 0 0 1-24-5 36 36 0 0 1-8-6l-2-3-2-3a11 11 0 0 1 2-10l3-3 4-3a36 36 0 0 1 10-4 56 56 0 0 1 18-2 67 67 0 0 1 23 5 36 36 0 0 1 8 6l3 3 2 3v4s0-1 0 0"/></g><g stroke-linecap="round"><path fill="#fff" d="m325 201-1 3-2 2-3 2a32 32 0 0 1-9 3 76 76 0 0 1-18 2 122 122 0 0 1-33-4 51 51 0 0 1-9-4l-2-2-2-2-1-2 1-3 2-2 3-2 4-1a48 48 0 0 1 11-3 95 95 0 0 1 27 0 109 109 0 0 1 23 5 30 30 0 0 1 7 4l1 2 1 2c0 1 0 0 0 0"/><path fill="none" stroke="#1e1e1e" d="m325 201-1 3-2 2-3 2a32 32 0 0 1-9 3 76 76 0 0 1-18 2 122 122 0 0 1-33-4 51 51 0 0 1-9-4l-2-2-2-2-1-2 1-3 2-2 3-2 4-1a48 48 0 0 1 11-3 95 95 0 0 1 27 0 109 109 0 0 1 23 5 30 30 0 0 1 7 4l1 2 1 2c0 1 0 0 0 0"/></g><g stroke-linecap="round"><path fill="#fff" d="M262 198v3l-1 3-1 4-3 4a36 36 0 0 1-7 7 60 60 0 0 1-16 8 88 88 0 0 1-25 6 60 60 0 0 1-11-1 35 35 0 0 1-9-3l-3-2-2-2a10 10 0 0 1-2-6v-4l2-3 2-4a34 34 0 0 1 8-7 60 60 0 0 1 16-9 82 82 0 0 1 30-5 47 47 0 0 1 11 2 25 25 0 0 1 7 3l2 3 2 3s0-1 0 0"/><path fill="none" stroke="#1e1e1e" d="M262 198v3l-1 3-1 4-3 4a36 36 0 0 1-7 7 60 60 0 0 1-16 8 88 88 0 0 1-25 6 60 60 0 0 1-11-1 35 35 0 0 1-9-3l-3-2-2-2a10 10 0 0 1-2-6v-4l2-3 2-4a34 34 0 0 1 8-7 60 60 0 0 1 16-9 82 82 0 0 1 30-5 47 47 0 0 1 11 2 25 25 0 0 1 7 3l2 3 2 3s0-1 0 0"/></g><g stroke-linecap="round"><path fill="#fff" d="M294 214a15 15 0 0 1-1 6 18 18 0 0 1-5 6 24 24 0 0 1-8 4 33 33 0 0 1-13 2 36 36 0 0 1-13-3 28 28 0 0 1-7-4 22 22 0 0 1-5-7 16 16 0 0 1-1-6 15 15 0 0 1 2-7 19 19 0 0 1 5-6 25 25 0 0 1 7-4 32 32 0 0 1 13-2 36 36 0 0 1 14 3 29 29 0 0 1 7 5 21 21 0 0 1 4 6l1 3v4c1 0 1-1 0 0"/><path fill="none" stroke="#1e1e1e" d="M294 214a15 15 0 0 1-1 6 18 18 0 0 1-5 6 24 24 0 0 1-8 4 33 33 0 0 1-13 2 36 36 0 0 1-13-3 28 28 0 0 1-7-4 22 22 0 0 1-5-7 16 16 0 0 1-1-6 15 15 0 0 1 2-7 19 19 0 0 1 5-6 25 25 0 0 1 7-4 32 32 0 0 1 13-2 36 36 0 0 1 14 3 29 29 0 0 1 7 5 21 21 0 0 1 4 6l1 3v4c1 0 1-1 0 0"/></g><g stroke-linecap="round"><path fill="#fff" d="M221 175c8-2 20-2 29 0 9 1 19 4 25 8s9 11 11 16c1 5 1 10-3 14-3 5-11 9-18 11-8 3-18 5-27 5s-20-3-27-6c-8-3-14-6-19-10-4-4-7-11-6-16s5-10 13-14c7-4 26-8 33-10 8-1 12 1 12 1m12 3c8 2 16 6 21 10 5 5 10 10 11 14 1 5-3 10-7 14-5 4-12 8-20 11a93 93 0 0 1-55-4c-7-3-13-7-16-11-3-5-3-13-1-19 2-5 6-10 12-13s17-3 26-3h28-2"/><path fill="none" stroke="#fff" d="M254 177c8 1 17 6 23 10s10 10 10 14c1 5-2 11-7 15-4 4-12 7-20 9s-19 3-27 3c-9-1-18-3-25-6-8-3-16-8-19-12s-3-10-1-15c2-4 7-10 14-13 6-4 15-7 24-8s25 2 30 2c5 1 2 1 2 1m-43 0c7-3 18-4 27-3 9 0 18 4 25 7s16 7 19 12 1 13-1 17c-3 5-8 9-15 12-6 3-16 5-24 5-9 1-19 2-28 0-8-2-17-8-22-12-5-5-8-9-9-14 0-5 2-12 6-16s18-7 21-8c3-2-1 0-1 0"/></g><text x="45" fill="#1e1e1e" dominant-baseline="text-before-edge" font-family="Virgil, Segoe UI Emoji" font-size="28" style="white-space:pre" text-anchor="middle" transform="translate(192.07713136372445 185.0222182231152) rotate(2.04002049220916 45.345985412597656 17.5)">Accent</text><g stroke-linecap="round"><path fill="#fff" d="M588 357v3l-2 4-3 3-3 2a37 37 0 0 1-10 5 57 57 0 0 1-19 3 72 72 0 0 1-18-3 47 47 0 0 1-10-4l-4-3-2-3-2-3a11 11 0 0 1 2-10l2-3a27 27 0 0 1 8-6 47 47 0 0 1 12-3 65 65 0 0 1 41 6l3 2 3 3 2 4v3c0 1 0-1 0 0"/><path fill="none" stroke="#000" d="M588 357v3l-2 4-3 3-3 2a37 37 0 0 1-10 5 57 57 0 0 1-19 3 72 72 0 0 1-18-3 47 47 0 0 1-10-4l-4-3-2-3-2-3a11 11 0 0 1 2-10l2-3a27 27 0 0 1 8-6 47 47 0 0 1 12-3 65 65 0 0 1 41 6l3 2 3 3 2 4v3c0 1 0-1 0 0"/></g><g stroke-linecap="round"><path fill="#fff" d="M503 372v3l-2 4-3 3-3 2a41 41 0 0 1-11 5 75 75 0 0 1-19 4 109 109 0 0 1-35-4 59 59 0 0 1-10-4l-4-3-3-3-2-3a9 9 0 0 1 0-6l2-3 3-3 4-3a41 41 0 0 1 10-5 73 73 0 0 1 20-3 102 102 0 0 1 34 3 56 56 0 0 1 11 4l3 3 3 3 2 3v3c1 1 1 0 0 0"/><path fill="none" stroke="#000" d="M503 372v3l-2 4-3 3-3 2a41 41 0 0 1-11 5 75 75 0 0 1-19 4 109 109 0 0 1-35-4 59 59 0 0 1-10-4l-4-3-3-3-2-3a9 9 0 0 1 0-6l2-3 3-3 4-3a41 41 0 0 1 10-5 73 73 0 0 1 20-3 102 102 0 0 1 34 3 56 56 0 0 1 11 4l3 3 3 3 2 3v3c1 1 1 0 0 0"/></g><g stroke-linecap="round"><path fill="#fff" d="m550 409-1 2-1 3-2 2-4 2a35 35 0 0 1-8 3 60 60 0 0 1-17 2 76 76 0 0 1-21-3 35 35 0 0 1-7-4l-2-2-2-2v-5l1-2 3-3 3-2a37 37 0 0 1 9-3 59 59 0 0 1 16-2 76 76 0 0 1 21 3 37 37 0 0 1 7 4l3 2 1 2 1 3s0-1 0 0"/><path fill="none" stroke="#000" d="m550 409-1 2-1 3-2 2-4 2a35 35 0 0 1-8 3 60 60 0 0 1-17 2 76 76 0 0 1-21-3 35 35 0 0 1-7-4l-2-2-2-2v-5l1-2 3-3 3-2a37 37 0 0 1 9-3 59 59 0 0 1 16-2 76 76 0 0 1 21 3 37 37 0 0 1 7 4l3 2 1 2 1 3s0-1 0 0"/></g><g stroke-linecap="round"><path fill="#fff" d="M543 353a13 13 0 0 1-2 7l-3 3a27 27 0 0 1-8 6 48 48 0 0 1-11 5 67 67 0 0 1-19 2 80 80 0 0 1-26-4 48 48 0 0 1-9-5 26 26 0 0 1-7-6l-1-4a13 13 0 0 1 1-11l3-3 4-3a38 38 0 0 1 9-5 59 59 0 0 1 19-4 85 85 0 0 1 26 2 59 59 0 0 1 11 4 38 38 0 0 1 8 6l3 3 1 3 1 4c0 1 0-1 0 0"/><path fill="none" stroke="#000" d="M543 353a13 13 0 0 1-2 7l-3 3a27 27 0 0 1-8 6 48 48 0 0 1-11 5 67 67 0 0 1-19 2 80 80 0 0 1-26-4 48 48 0 0 1-9-5 26 26 0 0 1-7-6l-1-4a13 13 0 0 1 1-11l3-3 4-3a38 38 0 0 1 9-5 59 59 0 0 1 19-4 85 85 0 0 1 26 2 59 59 0 0 1 11 4 38 38 0 0 1 8 6l3 3 1 3 1 4c0 1 0-1 0 0"/></g><g stroke-linecap="round"><path fill="#fff" d="m617 371-1 2-1 3-3 2a31 31 0 0 1-9 4 68 68 0 0 1-12 3 123 123 0 0 1-42 0 102 102 0 0 1-17-5l-4-2-3-2-2-2v-5l2-2 3-3 4-2a48 48 0 0 1 10-3 95 95 0 0 1 21-3 139 139 0 0 1 40 4 48 48 0 0 1 9 4l3 2 1 2 1 3s0-1 0 0"/><path fill="none" stroke="#000" d="m617 371-1 2-1 3-3 2a31 31 0 0 1-9 4 68 68 0 0 1-12 3 123 123 0 0 1-42 0 102 102 0 0 1-17-5l-4-2-3-2-2-2v-5l2-2 3-3 4-2a48 48 0 0 1 10-3 95 95 0 0 1 21-3 139 139 0 0 1 40 4 48 48 0 0 1 9 4l3 2 1 2 1 3s0-1 0 0"/></g><g stroke-linecap="round"><path fill="#fff" d="m542 370 1 3-1 5-1 4-3 4a42 42 0 0 1-9 9 70 70 0 0 1-18 11 98 98 0 0 1-36 8 56 56 0 0 1-12-2l-5-1-4-3-3-3a12 12 0 0 1-2-7v-4l2-4 3-4a44 44 0 0 1 8-9 70 70 0 0 1 19-11 98 98 0 0 1 35-8 56 56 0 0 1 12 1l5 2 4 2 3 3 2 4s0-1 0 0"/><path fill="none" stroke="#000" d="m542 370 1 3-1 5-1 4-3 4a42 42 0 0 1-9 9 70 70 0 0 1-18 11 98 98 0 0 1-36 8 56 56 0 0 1-12-2l-5-1-4-3-3-3a12 12 0 0 1-2-7v-4l2-4 3-4a44 44 0 0 1 8-9 70 70 0 0 1 19-11 98 98 0 0 1 35-8 56 56 0 0 1 12 1l5 2 4 2 3 3 2 4s0-1 0 0"/></g><g stroke-linecap="round"><path fill="#fff" d="M582 387a18 18 0 0 1-5 11 25 25 0 0 1-7 7 35 35 0 0 1-9 4 39 39 0 0 1-16 1 39 39 0 0 1-15-5 30 30 0 0 1-7-6 22 22 0 0 1-4-8 18 18 0 0 1 1-12 21 21 0 0 1 6-7 29 29 0 0 1 8-5 39 39 0 0 1 16-4 42 42 0 0 1 20 6 29 29 0 0 1 7 6 21 21 0 0 1 4 8l1 4s0-1 0 0"/><path fill="none" stroke="#000" d="M582 387a18 18 0 0 1-5 11 25 25 0 0 1-7 7 35 35 0 0 1-9 4 39 39 0 0 1-16 1 39 39 0 0 1-15-5 30 30 0 0 1-7-6 22 22 0 0 1-4-8 18 18 0 0 1 1-12 21 21 0 0 1 6-7 29 29 0 0 1 8-5 39 39 0 0 1 16-4 42 42 0 0 1 20 6 29 29 0 0 1 7 6 21 21 0 0 1 4 8l1 4s0-1 0 0"/></g><g stroke-linecap="round"><path fill="#fff" d="M566 375a18 18 0 0 1-2 9l-3 4a33 33 0 0 1-9 8 55 55 0 0 1-13 6 82 82 0 0 1-23 5 109 109 0 0 1-40-5 70 70 0 0 1-12-6 43 43 0 0 1-9-7 25 25 0 0 1-5-9 18 18 0 0 1 2-13c0-2 1-3 3-4a33 33 0 0 1 8-8 55 55 0 0 1 13-6 82 82 0 0 1 23-5 110 110 0 0 1 40 5 70 70 0 0 1 13 6 45 45 0 0 1 9 7 25 25 0 0 1 5 9v4c0 1 0-1 0 0"/><path fill="none" stroke="transparent" d="M566 375a18 18 0 0 1-2 9l-3 4a33 33 0 0 1-9 8 55 55 0 0 1-13 6 82 82 0 0 1-23 5 109 109 0 0 1-40-5 70 70 0 0 1-12-6 43 43 0 0 1-9-7 25 25 0 0 1-5-9 18 18 0 0 1 2-13c0-2 1-3 3-4a33 33 0 0 1 8-8 55 55 0 0 1 13-6 82 82 0 0 1 23-5 110 110 0 0 1 40 5 70 70 0 0 1 13 6 45 45 0 0 1 9 7 25 25 0 0 1 5 9v4c0 1 0-1 0 0"/></g><g stroke-linecap="round"><path fill="#fff" d="m548 404-1 2-1 1-3 2-3 1a52 52 0 0 1-9 2 100 100 0 0 1-23 1 113 113 0 0 1-20-3 28 28 0 0 1-6-2l-1-2-1-1 1-2 1-1 3-2a30 30 0 0 1 7-2 72 72 0 0 1 16-2 143 143 0 0 1 28 2 48 48 0 0 1 7 2l3 1 1 2 1 1"/><path fill="none" stroke="transparent" d="m548 404-1 2-1 1-3 2-3 1a52 52 0 0 1-9 2 100 100 0 0 1-23 1 113 113 0 0 1-20-3 28 28 0 0 1-6-2l-1-2-1-1 1-2 1-1 3-2a30 30 0 0 1 7-2 72 72 0 0 1 16-2 143 143 0 0 1 28 2 48 48 0 0 1 7 2l3 1 1 2 1 1s0 0 0 0"/></g><g stroke-linecap="round"><path fill="#fff" d="m623 427-1 2-1 2-3 1a34 34 0 0 1-9 2 83 83 0 0 1-19 0 152 152 0 0 1-31-6 55 55 0 0 1-9-3l-2-2-2-2v-4l2-1 3-2a34 34 0 0 1 9-2 83 83 0 0 1 19 0 139 139 0 0 1 36 8 34 34 0 0 1 6 4l2 1v2c0 1 0 0 0 0"/><path fill="none" stroke="transparent" d="m623 427-1 2-1 2-3 1a34 34 0 0 1-9 2 83 83 0 0 1-19 0 152 152 0 0 1-31-6 55 55 0 0 1-9-3l-2-2-2-2v-4l2-1 3-2a34 34 0 0 1 9-2 83 83 0 0 1 19 0 139 139 0 0 1 36 8 34 34 0 0 1 6 4l2 1v2c0 1 0 0 0 0"/></g><g stroke-linecap="round"><path fill="#fff" d="m598 378-1 2-2 1-3 1a34 34 0 0 1-9 2 83 83 0 0 1-19 1 152 152 0 0 1-31-6 55 55 0 0 1-8-4l-3-2-2-2v-2l1-1 2-2 3-1a34 34 0 0 1 9-2 83 83 0 0 1 18 0 139 139 0 0 1 36 7 34 34 0 0 1 7 4l1 2 1 2"/><path fill="none" stroke="transparent" d="m598 378-1 2-2 1-3 1a34 34 0 0 1-9 2 83 83 0 0 1-19 1 152 152 0 0 1-31-6 55 55 0 0 1-8-4l-3-2-2-2v-2l1-1 2-2 3-1a34 34 0 0 1 9-2 83 83 0 0 1 18 0 139 139 0 0 1 36 7 34 34 0 0 1 7 4l1 2 1 2s0 0 0 0"/></g><g stroke-linecap="round"><path fill="#fff" d="m515 365-1 2-2 2-3 1a40 40 0 0 1-9 3 98 98 0 0 1-19 2 170 170 0 0 1-39-3 39 39 0 0 1-7-3l-2-1-1-2 1-2 2-2 3-1 4-2a66 66 0 0 1 11-2 130 130 0 0 1 35-1 131 131 0 0 1 21 4l3 2 2 2 1 1c0 1 0 0 0 0"/><path fill="none" stroke="transparent" d="m515 365-1 2-2 2-3 1a40 40 0 0 1-9 3 98 98 0 0 1-19 2 170 170 0 0 1-39-3 39 39 0 0 1-7-3l-2-1-1-2 1-2 2-2 3-1 4-2a66 66 0 0 1 11-2 130 130 0 0 1 35-1 131 131 0 0 1 21 4l3 2 2 2 1 1c0 1 0 0 0 0"/></g><text x="73" fill="#1e1e1e" dominant-baseline="text-before-edge" font-family="Virgil, Segoe UI Emoji" font-size="28" style="white-space:pre" text-anchor="middle" transform="translate(441.2793842458394 358.9343522587446) rotate(359.6622192317032 72.7159652709961 17.5)">Foreground</text><g stroke-linecap="round"><path fill="#fff" d="M819 161v3l-2 4-2 3-4 3a36 36 0 0 1-9 5 60 60 0 0 1-19 4 82 82 0 0 1-31-4 47 47 0 0 1-10-5 27 27 0 0 1-6-6l-1-4a12 12 0 0 1 1-10l3-3a27 27 0 0 1 8-6 49 49 0 0 1 10-4 69 69 0 0 1 20-2 82 82 0 0 1 25 4 49 49 0 0 1 9 5 26 26 0 0 1 6 6l2 3v4s0-1 0 0"/><path fill="none" stroke="#000" d="M819 161v3l-2 4-2 3-4 3a36 36 0 0 1-9 5 60 60 0 0 1-19 4 82 82 0 0 1-31-4 47 47 0 0 1-10-5 27 27 0 0 1-6-6l-1-4a12 12 0 0 1 1-10l3-3a27 27 0 0 1 8-6 49 49 0 0 1 10-4 69 69 0 0 1 20-2 82 82 0 0 1 25 4 49 49 0 0 1 9 5 26 26 0 0 1 6 6l2 3v4s0-1 0 0"/></g><g stroke-linecap="round"><path fill="#fff" d="M721 178v3l-2 4-2 3-4 3a42 42 0 0 1-10 5 76 76 0 0 1-20 4 119 119 0 0 1-50-4 56 56 0 0 1-10-5 28 28 0 0 1-6-6l-1-4a11 11 0 0 1 0-6l1-4 3-3a29 29 0 0 1 8-5 56 56 0 0 1 11-5 89 89 0 0 1 22-3 119 119 0 0 1 42 5 56 56 0 0 1 10 5l4 3 2 3 2 4v3c1 1 1-1 0 0"/><path fill="none" stroke="#000" d="M721 178v3l-2 4-2 3-4 3a42 42 0 0 1-10 5 76 76 0 0 1-20 4 119 119 0 0 1-50-4 56 56 0 0 1-10-5 28 28 0 0 1-6-6l-1-4a11 11 0 0 1 0-6l1-4 3-3a29 29 0 0 1 8-5 56 56 0 0 1 11-5 89 89 0 0 1 22-3 119 119 0 0 1 42 5 56 56 0 0 1 10 5l4 3 2 3 2 4v3c1 1 1-1 0 0"/></g><g stroke-linecap="round"><path fill="#fff" d="m775 220-1 3-2 3-2 2-4 2a39 39 0 0 1-10 4 68 68 0 0 1-19 2 89 89 0 0 1-24-4 39 39 0 0 1-8-4l-3-2-2-3a7 7 0 0 1 0-5l2-3 3-3 3-2a41 41 0 0 1 10-3 73 73 0 0 1 26-2 84 84 0 0 1 17 3 41 41 0 0 1 9 4l2 3 2 3 1 2c0 1 0 0 0 0"/><path fill="none" stroke="#000" d="m775 220-1 3-2 3-2 2-4 2a39 39 0 0 1-10 4 68 68 0 0 1-19 2 89 89 0 0 1-24-4 39 39 0 0 1-8-4l-3-2-2-3a7 7 0 0 1 0-5l2-3 3-3 3-2a41 41 0 0 1 10-3 73 73 0 0 1 26-2 84 84 0 0 1 17 3 41 41 0 0 1 9 4l2 3 2 3 1 2c0 1 0 0 0 0"/></g><g stroke-linecap="round"><path fill="#fff" d="M767 156a15 15 0 0 1-2 7l-2 4a28 28 0 0 1-8 6 48 48 0 0 1-11 5 71 71 0 0 1-20 4 93 93 0 0 1-34-4 61 61 0 0 1-10-5 40 40 0 0 1-8-6 21 21 0 0 1-4-7 14 14 0 0 1 0-8l1-3 3-4a29 29 0 0 1 8-6 48 48 0 0 1 10-5 71 71 0 0 1 20-4 93 93 0 0 1 34 4 58 58 0 0 1 15 8 28 28 0 0 1 6 7l2 3v4c0 1 0-1 0 0"/><path fill="none" stroke="#000" d="M767 156a15 15 0 0 1-2 7l-2 4a28 28 0 0 1-8 6 48 48 0 0 1-11 5 71 71 0 0 1-20 4 93 93 0 0 1-34-4 61 61 0 0 1-10-5 40 40 0 0 1-8-6 21 21 0 0 1-4-7 14 14 0 0 1 0-8l1-3 3-4a29 29 0 0 1 8-6 48 48 0 0 1 10-5 71 71 0 0 1 20-4 93 93 0 0 1 34 4 58 58 0 0 1 15 8 28 28 0 0 1 6 7l2 3v4c0 1 0-1 0 0"/></g><g stroke-linecap="round"><path fill="#fff" d="M852 177v3l-2 2-3 2-3 3a47 47 0 0 1-10 3 89 89 0 0 1-21 4 153 153 0 0 1-56-5 47 47 0 0 1-8-5l-3-2-2-2v-5l2-3 3-2 3-2a47 47 0 0 1 11-4 91 91 0 0 1 20-4 166 166 0 0 1 51 4 69 69 0 0 1 10 4l3 2 3 2 2 3v2"/><path fill="none" stroke="#000" d="M852 177v3l-2 2-3 2-3 3a47 47 0 0 1-10 3 89 89 0 0 1-21 4 153 153 0 0 1-56-5 47 47 0 0 1-8-5l-3-2-2-2v-5l2-3 3-2 3-2a47 47 0 0 1 11-4 91 91 0 0 1 20-4 166 166 0 0 1 51 4 69 69 0 0 1 10 4l3 2 3 2 2 3v2s0 0 0 0"/></g><g stroke-linecap="round"><path fill="#fff" d="m766 175 1 4-1 4-1 5-3 4a43 43 0 0 1-8 9 68 68 0 0 1-11 9 98 98 0 0 1-29 12 111 111 0 0 1-30 3 54 54 0 0 1-12-2l-4-2-4-2-3-4a14 14 0 0 1-2-11l1-5a31 31 0 0 1 6-9 54 54 0 0 1 10-9 88 88 0 0 1 20-11 119 119 0 0 1 38-9 73 73 0 0 1 13 1 41 41 0 0 1 10 4l4 3 3 3 2 3c0 1 0 0 0 0"/><path fill="none" stroke="#000" d="m766 175 1 4-1 4-1 5-3 4a43 43 0 0 1-8 9 68 68 0 0 1-11 9 98 98 0 0 1-29 12 111 111 0 0 1-30 3 54 54 0 0 1-12-2l-4-2-4-2-3-4a14 14 0 0 1-2-11l1-5a31 31 0 0 1 6-9 54 54 0 0 1 10-9 88 88 0 0 1 20-11 119 119 0 0 1 38-9 73 73 0 0 1 13 1 41 41 0 0 1 10 4l4 3 3 3 2 3c0 1 0 0 0 0"/></g><g stroke-linecap="round"><path fill="#fff" d="M811 195a21 21 0 0 1-4 12 27 27 0 0 1-6 7 35 35 0 0 1-10 5 43 43 0 0 1-16 3 49 49 0 0 1-22-5 37 37 0 0 1-8-6 27 27 0 0 1-5-8 21 21 0 0 1-2-8 20 20 0 0 1 2-8 23 23 0 0 1 5-8 31 31 0 0 1 8-6 41 41 0 0 1 16-5 49 49 0 0 1 27 5 37 37 0 0 1 8 6 27 27 0 0 1 6 8l1 4v4c0 1 0-1 0 0"/><path fill="none" stroke="#000" d="M811 195a21 21 0 0 1-4 12 27 27 0 0 1-6 7 35 35 0 0 1-10 5 43 43 0 0 1-16 3 49 49 0 0 1-22-5 37 37 0 0 1-8-6 27 27 0 0 1-5-8 21 21 0 0 1-2-8 20 20 0 0 1 2-8 23 23 0 0 1 5-8 31 31 0 0 1 8-6 41 41 0 0 1 16-5 49 49 0 0 1 27 5 37 37 0 0 1 8 6 27 27 0 0 1 6 8l1 4v4c0 1 0-1 0 0"/></g><g stroke-linecap="round"><path fill="#fff" d="M794 182a20 20 0 0 1-3 9 28 28 0 0 1-6 9 45 45 0 0 1-11 7 71 71 0 0 1-14 6 99 99 0 0 1-25 5 128 128 0 0 1-42-5 84 84 0 0 1-20-9 45 45 0 0 1-9-8 28 28 0 0 1-4-10 20 20 0 0 1 0-9 22 22 0 0 1 4-9 35 35 0 0 1 9-8 57 57 0 0 1 12-7 87 87 0 0 1 24-6 122 122 0 0 1 58 6 74 74 0 0 1 13 7 45 45 0 0 1 9 8 28 28 0 0 1 4 9l1 5s0-1 0 0"/><path fill="none" stroke="transparent" d="M794 182a20 20 0 0 1-3 9 28 28 0 0 1-6 9 45 45 0 0 1-11 7 71 71 0 0 1-14 6 99 99 0 0 1-25 5 128 128 0 0 1-42-5 84 84 0 0 1-20-9 45 45 0 0 1-9-8 28 28 0 0 1-4-10 20 20 0 0 1 0-9 22 22 0 0 1 4-9 35 35 0 0 1 9-8 57 57 0 0 1 12-7 87 87 0 0 1 24-6 122 122 0 0 1 58 6 74 74 0 0 1 13 7 45 45 0 0 1 9 8 28 28 0 0 1 4 9l1 5s0-1 0 0"/></g><g stroke-linecap="round"><path fill="#fff" d="M772 215v2l-2 1-3 2-4 1a60 60 0 0 1-10 3 117 117 0 0 1-33 0 118 118 0 0 1-17-3 32 32 0 0 1-6-3l-2-1-1-2 1-2 2-2 3-1a33 33 0 0 1 8-3 90 90 0 0 1 19-2 152 152 0 0 1 36 3 34 34 0 0 1 7 3l2 2v2"/><path fill="none" stroke="transparent" d="M772 215v2l-2 1-3 2-4 1a60 60 0 0 1-10 3 117 117 0 0 1-33 0 118 118 0 0 1-17-3 32 32 0 0 1-6-3l-2-1-1-2 1-2 2-2 3-1a33 33 0 0 1 8-3 90 90 0 0 1 19-2 152 152 0 0 1 36 3 34 34 0 0 1 7 3l2 2v2s0 0 0 0"/></g><g stroke-linecap="round"><path fill="#fff" d="m817 161-1 2-2 2-3 1-4 1a55 55 0 0 1-10 2 102 102 0 0 1-19 0 164 164 0 0 1-38-8 55 55 0 0 1-8-4l-3-2-1-2-1-2 1-2 2-1 3-2 4-1a55 55 0 0 1 10-1 102 102 0 0 1 19 0 164 164 0 0 1 39 8 55 55 0 0 1 7 3l3 2 1 2 1 2c0 1 0 0 0 0"/><path fill="none" stroke="transparent" d="m817 161-1 2-2 2-3 1-4 1a55 55 0 0 1-10 2 102 102 0 0 1-19 0 164 164 0 0 1-38-8 55 55 0 0 1-8-4l-3-2-1-2-1-2 1-2 2-1 3-2 4-1a55 55 0 0 1 10-1 102 102 0 0 1 19 0 164 164 0 0 1 39 8 55 55 0 0 1 7 3l3 2 1 2 1 2c0 1 0 0 0 0"/></g><g stroke-linecap="round"><path fill="#fff" d="m830 185-1 2-2 1-3 2-3 1a55 55 0 0 1-11 1 102 102 0 0 1-19 0 164 164 0 0 1-38-7 55 55 0 0 1-8-4l-3-2-1-2v-4l2-2 3-1 4-1a55 55 0 0 1 10-2 102 102 0 0 1 20 0 164 164 0 0 1 38 8 55 55 0 0 1 8 4l2 2 1 2 1 2"/><path fill="none" stroke="transparent" d="m830 185-1 2-2 1-3 2-3 1a55 55 0 0 1-11 1 102 102 0 0 1-19 0 164 164 0 0 1-38-7 55 55 0 0 1-8-4l-3-2-1-2v-4l2-2 3-1 4-1a55 55 0 0 1 10-2 102 102 0 0 1 20 0 164 164 0 0 1 38 8 55 55 0 0 1 8 4l2 2 1 2 1 2s0 0 0 0"/></g><g stroke-linecap="round"><path fill="#fff" d="m735 170-1 2-2 2-3 1a35 35 0 0 1-8 3 102 102 0 0 1-19 3 184 184 0 0 1-53-4 34 34 0 0 1-7-3l-2-2v-4l2-1 3-2a36 36 0 0 1 9-3 93 93 0 0 1 19-3 166 166 0 0 1 56 6c2 0 2 1 3 2l2 1 1 2"/><path fill="none" stroke="transparent" d="m735 170-1 2-2 2-3 1a35 35 0 0 1-8 3 102 102 0 0 1-19 3 184 184 0 0 1-53-4 34 34 0 0 1-7-3l-2-2v-4l2-1 3-2a36 36 0 0 1 9-3 93 93 0 0 1 19-3 166 166 0 0 1 56 6c2 0 2 1 3 2l2 1 1 2s0 0 0 0"/></g><text x="77" fill="#1e1e1e" dominant-baseline="text-before-edge" font-family="Virgil, Segoe UI Emoji" font-size="28" style="white-space:pre" text-anchor="middle" transform="translate(657.0036623526929 165.28560283980337) rotate(0 76.60796356201172 17.5)">Background</text><text fill="#1e1e1e" dominant-baseline="text-before-edge" font-family="Virgil, Segoe UI Emoji" font-size="20" style="white-space:pre" transform="translate(40.891785608368025 145.80619757658678) rotate(0.8689471787826233 16.65998077392578 12.5)">Hue</text><text fill="#1e1e1e" dominant-baseline="text-before-edge" font-family="Virgil, Segoe UI Emoji" font-size="20" style="white-space:pre" transform="translate(32.20116616492868 242.11215534733898) rotate(358.5834289095045 53.099952697753906 12.5)">Saturation</text><text fill="#1e1e1e" dominant-baseline="text-before-edge" font-family="Virgil, Segoe UI Emoji" font-size="20" style="white-space:pre" transform="translate(172.09866065335711 304.11135101318365) rotate(0 44.77995300292969 12.5)">Lightness</text><text fill="#1e1e1e" dominant-baseline="text-before-edge" font-family="Virgil, Segoe UI Emoji" font-size="20" style="white-space:pre" transform="translate(392.56934979113396 434.68947601318365) rotate(0 16.65998077392578 12.5)">Hue</text><text fill="#1e1e1e" dominant-baseline="text-before-edge" font-family="Virgil, Segoe UI Emoji" font-size="20" style="white-space:pre" transform="translate(524.51613730741 468.34963226318365) rotate(0 53.099952697753906 12.5)">Saturation</text><text fill="#1e1e1e" dominant-baseline="text-before-edge" font-family="Virgil, Segoe UI Emoji" font-size="20" style="white-space:pre" transform="translate(640.7022436713422 409.08010101318365) rotate(0 44.77995300292969 12.5)">Lightness</text><text fill="#1e1e1e" dominant-baseline="text-before-edge" font-family="Virgil, Segoe UI Emoji" font-size="20" style="white-space:pre" transform="translate(793.1924640591191 275.44728851318365) rotate(0 16.65998077392578 12.5)">Hue</text><text fill="#1e1e1e" dominant-baseline="text-before-edge" font-family="Virgil, Segoe UI Emoji" font-size="20" style="white-space:pre" transform="translate(866.8385517056032 215.18947601318365) rotate(0 53.099952697753906 12.5)">Saturation</text><text fill="#1e1e1e" dominant-baseline="text-before-edge" font-family="Virgil, Segoe UI Emoji" font-size="20" style="white-space:pre" transform="translate(857.9505206997436 91.24025726318365) rotate(0 44.77995300292969 12.5)">Lightness</text><g fill="none" stroke-linecap="round"><path stroke="#ffc9c9" stroke-width=".5" d="M77 340s0 0 0 0m0 0s0 0 0 0m-1 7c2-3 3-5 8-9m-8 9 8-9m-8 15c3-3 6-9 12-13m-12 13 12-13m-12 20c4-8 13-14 17-21m-17 21c7-9 14-15 17-21m-17 26c6-4 11-13 22-25m-22 25 22-25m-22 32c9-8 15-18 28-33m-28 33c5-8 12-13 28-33m-27 37c6-6 14-14 32-37m-32 37 32-37m-30 42c6-11 17-18 36-42m-36 42 36-42m-33 43 38-43m-38 43c13-15 26-31 38-43m-33 45c13-17 27-32 40-47m-40 47 40-47m-35 46c12-15 24-29 39-44m-39 44 39-44m-34 45 38-44m-38 44 38-44m-32 43c9-14 22-26 35-41m-35 41c15-16 29-31 35-41m-30 42c7-12 17-21 30-35m-30 35c7-9 16-17 30-35m-24 34 24-29m-24 29c9-10 19-21 24-29m-20 29c7-7 16-14 20-22m-20 22 20-22m-14 22c4-3 7-9 14-16m-14 16c4-3 6-6 14-16m-10 17c3-5 7-8 10-11m-10 11 10-11m-61 6s0 0 0 0m0 0s0 0 0 0m9 3c-4-5-9-7-11-10m11 10-11-10m17 10c-7-6-11-12-17-14m17 14-17-14m23 14c-5-7-12-11-23-20m23 20-23-20m29 20-29-25m29 25-29-25m35 25-35-31m35 31c-13-10-25-22-35-31m41 31-41-36m41 36c-11-11-25-20-41-36m47 36c-11-12-23-21-46-40m46 40c-11-11-24-21-46-40m51 39c-13-12-26-26-49-43m49 43-49-43m54 42c-12-8-21-19-50-43m50 43c-19-16-36-33-50-43m54 41c-12-8-19-19-49-43m49 43-49-43m51 39c-11-10-27-21-45-39m45 39-45-39m47 36c-10-12-21-18-41-36m41 36c-14-14-30-25-41-36m41 31c-11-9-27-20-35-31m35 31c-13-13-29-24-35-31m35 25c-9-8-15-15-29-25m29 25-29-25m29 20c-6-4-10-9-22-20m22 20c-5-5-10-11-22-20m21 13-16-13m16 13c-4-3-9-6-16-13m13 6-7-6m7 6-7-6"/><path stroke="#1e1e1e" d="M85 337h42m-42 0h42m0 0c8-1 10 5 11 11m-11-11c7 1 11 3 11 11m0 0c2 7 0 16 0 23m0-23v23m0 0c-1 8-3 9-11 11m11-11c-2 7-3 13-11 11m0 0c-15 2-32 1-42 0m42 0H85m0 0c-6 1-9-5-11-11m11 11c-5 2-12-2-11-11m0 0v-23m0 23v-23m0 0c0-9 2-9 11-11m-11 11c0-6 4-10 11-11"/></g><text fill="#1e1e1e" dominant-baseline="text-before-edge" font-family="Virgil, Segoe UI Emoji" font-size="16" style="white-space:pre" transform="translate(85.88252499254975 351.4609680175781) rotate(0 19.02398681640625 10)">Light</text><g stroke-linecap="round"><path fill="#1e1e1e" d="m269 358 51 2 9 2-1 9v21l1 4-11 2-46 4-9-5-1-7 1-25 1-3 8-4"/><path fill="none" stroke="#000" d="M271 359c11 0 20-2 49 0m-49 0h49m0 0c7-2 9 5 10 10m-10-10c7 1 12 4 10 10m0 0c-2 5-1 11 0 21m0-21v21m0 0c-1 7-2 12-10 10m10-10c-1 6-5 11-10 10m0 0c-16 2-31 1-49 0m49 0h-49m0 0c-7 0-11-2-10-10m10 10c-6 0-9-6-10-10m0 0v-21m0 21v-21m0 0c-2-6 2-11 10-10m-10 10c0-6 4-11 10-10"/></g><text fill="#fff" dominant-baseline="text-before-edge" font-family="Virgil, Segoe UI Emoji" font-size="16" style="white-space:pre" transform="translate(276.59076677314886 368.1301167805991) rotate(0 18.9119873046875 10)">Dark</text><g fill="none" stroke-linecap="round"><path stroke="#ffc9c9" stroke-width=".5" d="M728 459s0 0 0 0m0 0s0 0 0 0m-1 7c4-2 5-7 8-9m-8 9 8-9m-8 16c4-5 7-6 12-14m-12 14c3-5 5-8 12-14m-12 20c2-4 10-9 17-20m-17 20 17-20m-17 26c8-9 14-13 22-26m-22 26c6-10 15-18 22-26m-22 32 28-32m-28 32 28-32m-27 37c9-12 19-24 32-37m-32 37 32-37m-30 41c10-14 22-27 36-41m-36 41 36-41m-33 43c6-9 16-18 38-43m-38 43c14-15 26-31 38-43m-33 44c15-15 29-36 40-47m-40 47c12-16 26-31 40-47m-35 47 39-45m-39 45 39-45m-34 45c15-15 30-34 38-44m-38 44c8-12 19-21 38-44m-32 44c13-15 29-31 35-41m-35 41 35-41m-30 41c9-11 17-16 30-35m-30 35 30-35m-25 35c8-9 18-18 25-29m-25 29 25-29m-20 29c6-9 12-17 20-23m-20 23 20-23m-14 23 14-16m-14 16 14-16m-10 17c3-4 7-5 10-12m-10 12 10-12m-61 7s0 0 0 0m0 0s0 0 0 0m9 2c-3-4-8-5-11-9m11 9c-3-2-7-4-11-9m17 9c-5-2-10-8-17-14m17 14c-6-5-10-10-17-14m23 14c-7-5-12-8-23-20m23 20-23-20m29 20-29-25m29 25-29-25m35 26c-15-11-29-25-35-31m35 31-35-31m41 30-42-36m42 36c-11-9-21-20-42-36m48 36-46-40m46 40c-15-12-28-23-46-40m51 39c-11-12-24-21-49-42m49 42c-12-11-25-23-49-42m54 41c-9-8-23-18-50-43m50 43-50-43m54 42c-15-15-33-30-49-43m49 43c-12-9-22-20-49-43m51 39c-18-15-33-31-45-39m45 39-45-39m47 35-41-35m41 35-41-35m41 30-35-31m35 31c-12-12-27-25-35-31m35 26c-8-6-15-15-29-25m29 25c-10-10-21-19-29-25m29 20c-4-4-9-10-22-20m22 20-22-20m20 13-15-13m15 13c-3-5-9-8-15-13m13 5-7-6m7 6-7-6"/><path stroke="#1e1e1e" d="M736 456c15-1 29 2 42 0m-42 0h42m0 0c7 2 12 6 11 12m-11-12c8 0 9 6 11 12m0 0v22m0-22v22m0 0c1 6-5 13-11 12m11-12c-2 9-4 13-11 12m0 0h-42m42 0h-42m0 0c-7 1-13-4-11-12m11 12c-5 1-11-6-11-12m0 0v-22m0 22v-22m0 0c0-7 5-12 11-12m-11 12c0-6 5-13 11-12"/></g><text fill="#1e1e1e" dominant-baseline="text-before-edge" font-family="Virgil, Segoe UI Emoji" font-size="16" style="white-space:pre" transform="translate(737.0452447191122 470.96484375) rotate(0 19.02398681640625 10)">Light</text><g stroke-linecap="round"><path fill="#1e1e1e" d="m786 357 48 1 6 5 4 6 2 20-5 9-7 4-49-3-7-2-5-5 4-27-1-4 10-2"/><path fill="none" stroke="#000" d="M785 359c13 0 27 2 49 0m-49 0h49m0 0c6-2 8 3 10 11m-10-11c5-1 11 2 10 11m0 0c0 6 2 12 0 20m0-20v20m0 0c-2 9-1 11-10 11m10-11c1 8-5 8-10 11m0 0c-18-2-39 0-49 0m49 0h-49m0 0c-6-2-10-4-10-11m10 11c-9-1-12-4-10-11m0 0v-20m0 20v-20m0 0c-1-5 3-10 10-11m-10 11c0-9 4-10 10-11"/></g><text fill="#fff" dominant-baseline="text-before-edge" font-family="Virgil, Segoe UI Emoji" font-size="16" style="white-space:pre" transform="translate(790.6636427497114 368.606648763021) rotate(0 18.9119873046875 10)">Dark</text><g fill="none" stroke-linecap="round"><path stroke="#ffc9c9" stroke-width=".5" d="M985 13s0 0 0 0m0 0s0 0 0 0m-1 7c1-3 4-6 8-9m-8 9 8-9m-8 15c2-5 6-6 11-13m-11 13 11-13m-12 20 18-21m-18 21 18-21m-17 26 22-25m-22 25 22-25m-23 32 29-33m-29 33 29-33m-27 38c8-9 14-18 32-37m-32 37c9-12 20-23 32-37m-31 41c16-15 30-32 36-42m-36 42c9-9 15-20 36-42m-32 44c11-14 27-30 37-44m-37 44 37-44m-33 45c16-16 31-37 41-47m-41 47 41-47m-35 46c11-15 22-26 39-44m-39 44 39-44m-34 45 38-44m-38 44 38-44m-32 43 35-41m-35 41 35-41m-30 42 30-35m-30 35 30-35m-25 34c5-8 15-16 25-29m-25 29 25-29m-20 30 20-23m-20 23c6-8 13-17 20-23m-14 22 14-16m-14 16 14-16m-10 17c1-1 6-5 10-11m-10 11 10-11m-61 6s0 0 0 0m0 0s0 0 0 0m8 3c-3-2-7-8-10-9m10 9-10-9m17 9-17-14m17 14-17-14m22 14-22-20m22 20-22-20m29 20c-4-7-12-12-29-25m29 25-29-25m35 25c-8-7-16-16-35-31m35 31-35-31m41 31-42-36m42 36-42-36m48 36c-20-15-36-33-46-40m46 40c-11-9-22-21-46-40m51 39c-19-17-37-30-49-43m49 43-49-43m54 42c-13-11-29-23-50-43m50 43c-17-15-34-31-50-43m54 41c-16-13-33-26-49-42m49 42L995 9m51 38-45-39m45 39-45-39m47 36c-15-12-29-24-41-36m41 36c-14-10-27-22-41-36m41 31c-11-8-17-18-35-31m35 31-35-31m35 25c-10-9-23-16-29-25m29 25c-7-7-16-12-29-25m29 20c-9-4-14-11-23-19m23 19c-7-8-15-13-23-19m21 12c-5-6-11-7-15-13m15 13c-5-4-10-10-15-13m13 6-7-6m7 6-7-6"/><path stroke="#1e1e1e" d="M993 10h41m-41 0h41m0 0c9 1 11 3 12 11m-12-11c8 0 10 6 12 11m0 0v23m0-23v23m0 0c-1 8-4 13-12 11m12-11c1 8-4 9-12 11m0 0c-14-1-24 2-41 0m41 0h-41m0 0c-8 1-11-4-11-11m11 11c-5 1-12-1-11-11m0 0V21m0 23V21m0 0c-1-6 3-10 11-11m-11 11c-2-6 5-11 11-11"/></g><text fill="#1e1e1e" dominant-baseline="text-before-edge" font-family="Virgil, Segoe UI Emoji" font-size="16" style="white-space:pre" transform="translate(993.7758762295288 24.500020345052008) rotate(0 19.02398681640625 10)">Light</text><g stroke-linecap="round"><path fill="#1e1e1e" d="M1019 121h51l5 5 2 8 1 21v7l-11 2h-49l-7-4-2-8 1-24v-4l11-2"/><path fill="none" stroke="#000" d="M1020 122h48m-48 0h48m0 0c6 1 11 2 11 11m-11-11c8 0 9 3 11 11m0 0v20m0-20v20m0 0c-1 6-3 11-11 11m11-11c1 5-4 9-11 11m0 0h-48m48 0h-48m0 0c-5 1-12-4-11-11m11 11c-7 1-10-4-11-11m0 0c-2-6 0-9 0-20m0 20v-20m0 0c1-9 6-9 11-11m-11 11c2-6 2-11 11-11"/></g><text fill="#fff" dominant-baseline="text-before-edge" font-family="Virgil, Segoe UI Emoji" font-size="16" style="white-space:pre" transform="translate(1025.417711760128 131.805887858073) rotate(0 18.9119873046875 10)">Dark</text><path fill="none" stroke="#1e1e1e" stroke-linecap="round" d="M18 176c31-1 59 0 78 1m-78-1 78 1m0 0c4-2 6 3 7 7m-7-7c6-2 9 2 7 7m0 0v15m0-15v15m0 0c1 6-4 7-8 8m8-8c-1 4-2 6-8 8m0 0c-17-2-35-1-78-1m78 1c-29-2-58-1-78-1m0 0c-5 1-6-3-7-7m7 7c-6-1-8-2-7-7m0 0v-15m0 15v-15m0 0c0-5 1-9 8-8m-8 8c2-7 3-8 8-8m9 94 116-3m-116 3c40-2 79-4 116-3m0 0c4-1 9 4 8 7m-8-7c3 0 8 1 8 7m0 0v15m0-15v15m0 0c2 6-2 10-7 8m7-8c2 7-2 7-7 8m0 0c-42 3-84 3-116 3m116-3-116 3m0 0c-7 0-6-4-8-7m8 7c-4 0-8-2-8-7m0 0v-15m0 15v-15m0 0c0-6 1-9 7-8m-7 8c-1-6 3-6 7-8m861-30c23-2 42-1 56 0m-56 0h56m0 0c6 0 6 4 7 7m-7-7c5-3 7 2 7 7m0 0v15m0-15v15m0 0c0 6-1 6-7 8m7-8c2 6-4 6-7 8m0 0c-13 0-25-2-56 0m56 0h-56m0 0c-4 0-7-1-8-8m8 8c-4 1-7-5-8-8m0 0v-15m0 15v-15m0 0c1-5 4-9 8-7m-8 7c2-7 4-6 8-7m-112 60h75m-75 0h75m0 0c5 2 8 1 8 8m-8-8c6 0 7 1 8 8m0 0v15m0-15v15m0 0c1 3-1 8-8 7m8-7c-1 3-4 5-8 7m0 0h-75m75 0h-75m0 0c-3 2-5-1-7-7m7 7c-4-2-8-3-7-7m0 0v-15m0 15v-15m0 0c1-7 4-9 7-8m-7 8c2-3 1-6 7-8"/><text x="39" fill="#1e1e1e" dominant-baseline="text-before-edge" font-family="Virgil, Segoe UI Emoji" font-size="16" style="white-space:pre" text-anchor="middle" transform="translate(775.4694797451538 305.1464742024739) rotate(0 38.527984619140625 10)">0 to 360</text><text x="21" fill="#1e1e1e" dominant-baseline="text-before-edge" font-family="Virgil, Segoe UI Emoji" font-size="16" style="white-space:pre" text-anchor="middle" transform="translate(894.9363478278364 244.55142211914062) rotate(0 20.68798828125 10)">100%</text><path fill="none" stroke="#1e1e1e" stroke-linecap="round" d="M542 491h66m-66 0h66m0 0c6 0 9 4 7 8m-7-8c5 2 8 1 7 8m0 0v15m0-15v15m0 0c2 5-4 9-7 7m7-7c1 5-1 7-7 7m0 0h-66m66 0h-66m0 0c-7 2-6-3-8-7m8 7c-7 2-6-3-8-7m0 0v-15m0 15v-15m0 0c1-4 3-8 8-8m-8 8c-1-4 1-6 8-8"/><text x="56" fill="#1e1e1e" dominant-baseline="text-before-edge" font-family="Virgil, Segoe UI Emoji" font-size="16" style="white-space:pre" text-anchor="middle" transform="translate(30.035348901299926 273.4393856680041) rotate(358.5834289095045 55.59996795654297 10)">50% to 100%</text><path fill="none" stroke="#1e1e1e" stroke-linecap="round" d="M365 458h88m-88 0h88m0 0c6 0 8 4 7 7m-7-7c5-2 7 1 7 7m0 0v15m0-15v15m0 0c-1 7-1 8-7 8m7-8c1 5-4 7-7 8m0 0c-19 1-36 2-88 0m88 0h-88m0 0c-3-1-9-1-8-8m8 8c-3-1-10-2-8-8m0 0v-15m0 15v-15m0 0c1-5 2-6 8-7m-8 7c-1-3 2-7 8-7M186 237l-34 14m33-15-34 17m14-14c-4 5-6 8-13 13m11-12-11 13m19-3c-6 3-9 2-19 2m17-1c-7 2-13 2-17 2M41 388c39-2 77 0 119 0m-119 0h119m0 0c6 2 8 4 7 8m-7-8c4-1 8 4 7 8m0 0v15m0-15v15m0 0c-1 6-1 8-7 7m7-7c-2 4-2 8-7 7m0 0H41m119 0H41m0 0c-4 2-8-1-8-7m8 7c-7 2-6-3-8-7m0 0v-15m0 15v-15m0 0c-1-3 1-7 8-8m-8 8c1-4 2-6 8-8m200 16h105m-105 0c40 1 83 2 105 0m0 0c3 1 9 0 7 7m-7-7c3 1 7 1 7 7m0 0v15m0-15v15m0 0c-1 3-1 6-7 8m7-8c-2 3-3 9-7 8m0 0c-26 2-55 1-105 0m105 0H241m0 0c-7-2-7-1-8-8m8 8c-5 1-6-2-8-8m0 0v-15m0 15v-15m0 0c0-5 5-9 8-7m-8 7c0-4 4-5 8-7m-10-157-4 46m3-47-1 46m-7-23c4 7 5 16 5 21m-5-20 8 22m7-23c-1 7-5 16-10 21m10-20-7 22"/><g fill="none" stroke="#1e1e1e" stroke-linecap="round"><path d="m389 191-28 4-28 2m58-4-31 1c-10 0-23 3-28 4"/><path d="M343 191c-2 3-9 4-11 6m13-6c-3 1-6 2-13 7m13 2-13-3m15 4c-3-2-7-2-15-3"/></g><g fill="none" stroke="#1e1e1e" stroke-linecap="round"><path d="m467 232 13 56 9 33m-24-90 14 55 9 37m-9-15 8 16m-9-16c4 4 5 9 10 15"/><path d="m491 305-4 19m2-19c1 5-1 11-1 18"/></g><text x="39" fill="#1e1e1e" dominant-baseline="text-before-edge" font-family="Virgil, Segoe UI Emoji" font-size="16" style="white-space:pre" text-anchor="middle" transform="translate(370.38470191312274 462.541035970052) rotate(0 38.527984619140625 10)">0 to 360</text><text x="53" fill="#1e1e1e" dominant-baseline="text-before-edge" font-family="Virgil, Segoe UI Emoji" font-size="16" style="white-space:pre" text-anchor="middle" transform="translate(240.78326656969875 408.67779541015625) rotate(0 52.48796081542969 10)">45% to 50%</text><path fill="none" stroke="#1e1e1e" stroke-linecap="round" d="M702 505c33-1 63 3 121 0m-121 0h121m0 0c7 1 9 2 8 8m-8-8c4 0 7 1 8 8m0 0v15m0-15v15m0 0c-2 4-2 7-8 7m8-7c-2 5-2 5-8 7m0 0H702m121 0H702m0 0c-4 1-8-3-7-7m7 7c-5-1-6-2-7-7m0 0v-15m0 15v-15m0 0c-2-5 1-6 7-8m-7 8c0-6 1-10 7-8"/><g fill="none" stroke="#1e1e1e" stroke-linecap="round"><path d="M566 208a436 436 0 0 1 61-7m-63 6 30-1 32-4m-16 7c6-2 10-5 17-6m-16 8c3-3 9-6 15-8"/><path d="m608 197 19 6m-18-4c4 1 10 1 17 4"/></g><path fill="none" stroke="#1e1e1e" stroke-linecap="round" d="M773 406h121m-121 0h121m0 0c4-1 9 4 8 8m-8-8c5-1 8 2 8 8m0 0v15m0-15v15m0 0c-2 4-4 8-8 7m8-7c-1 6-2 7-8 7m0 0c-27 2-61-1-121 0m121 0c-46 0-94 2-121 0m0 0c-4 1-8-4-7-7m7 7c-2-1-6-4-7-7m0 0v-15m0 15v-15m0 0c-2-4 1-10 7-8m-7 8c1-3 1-9 7-8"/><text x="56" fill="#1e1e1e" dominant-baseline="text-before-edge" font-family="Virgil, Segoe UI Emoji" font-size="16" style="white-space:pre" text-anchor="middle" transform="translate(778.3993961269902 411.12828063964855) rotate(0 55.52796936035156 10)">90% to 100%</text><path fill="none" stroke="#1e1e1e" stroke-linecap="round" d="M974 63h107m-107 0h107m0 0c7 1 9 1 7 7m-7-7c5 1 8 3 7 7m0 0v15m0-15v15m0 0c2 7-3 7-7 8m7-8c0 5-2 9-7 8m0 0c-28-2-60-1-107 0m107 0H974m0 0c-4 0-9-5-8-8m8 8c-6 0-8-4-8-8m0 0V70m0 15V70m0 0c1-6 3-7 8-7m-8 7c-2-5 2-8 8-7m30 106h92m-92 0h92m0 0c6 1 6 3 8 7m-8-7c5 0 6 4 8 7m0 0v15m0-15v15m0 0c-2 6-5 9-8 8m8-8c-1 4 0 6-8 8m0 0h-92m92 0h-92m0 0c-3-1-6-3-7-8m7 8c-4 0-7-4-7-8m0 0v-15m0 15v-15m0 0c1-4 0-8 7-7m-7 7c-2-4 1-6 7-7M460 421l-28 21m30-22-31 20m11-15-12 16m11-16-10 15m17-5c-6 3-12 2-18 6m18-6c-6 3-10 3-17 5m98-7 16 33m-14-34 13 32m-11-13c2 3 5 5 9 14m-10-16 12 15m0-18-2 19m1-20 1 19m64-76 30 21m-32-22 31 21m-17-5 15 3m-17-2c6 0 14 3 19 4m-10-16c5 5 9 11 8 14m-10-13 12 15m118-173 34 34m-32-32 34 34m-23-13c5 6 11 5 21 13m-20-10 22 9m-12-23c3 7 6 10 10 24m-8-22c5 7 7 16 10 21m45-77 38 19m-37-19 36 21m-19-4 18 2m-19-2c7 2 12 3 19 3m-11-15 11 14m-12-14 12 15m-65-71 45-24m-46 26 45-28m-18 21c8-7 12-15 18-20m-17 21 16-22m-26 6c11-2 17-5 27-5m-27 5 26-6"/><g fill="none" stroke="#1e1e1e" stroke-linecap="round"><path d="M211 339c-5 3-23 14-34 18s-26 4-31 4m64-23c-5 2-23 13-33 17s-23 4-28 4"/><path d="M162 354c-2 0-4 3-13 5m13-6c-4 3-9 4-13 6m14 5c-3-3-5-1-14-5m13 4-13-4"/></g><g fill="none" stroke="#1e1e1e" stroke-linecap="round"><path d="M225 339c1 3 2 11 7 17 5 5 18 13 21 15m-26-30c1 3 0 11 5 16 4 5 18 13 21 15m-14-1 14 1m-13-3 13 3"/><path d="m244 363 9 9m-8-11c3 3 5 5 8 11"/></g><g fill="none" stroke="#1e1e1e" stroke-linecap="round"><path d="M658 444c5 4 20 17 30 23 10 5 25 8 30 10m-61-33c4 4 20 18 30 24s25 9 30 11"/><path d="M702 481c4-2 12-3 15-2m-16 1c4-1 8-2 16-1m-12-9 12 9m-13-10 13 10"/></g><g fill="none" stroke="#1e1e1e" stroke-linecap="round"><path d="m702 404 33-12 31-8m-65 18 34-12c11-3 28-4 33-5"/><path d="M753 394c7-6 11-8 14-9m-13 8 14-8m-17-2c8-2 13 0 16 2m-15-3 16 3"/></g><g fill="none" stroke="#1e1e1e" stroke-linecap="round"><path d="M910 85c4-5 14-22 23-30 10-9 30-16 36-19m-57 48c4-5 12-19 21-28 9-8 30-18 36-22"/><path d="M955 52c4-5 9-9 13-17m-13 16c3-6 6-8 14-18m-21 6 20-4m-20 3c5-2 10-1 21-5"/></g><g fill="none" stroke="#1e1e1e" stroke-linecap="round"><path d="m942 124 33 10c10 2 21 1 26 2m-57-13 30 12c10 2 21 2 26 2m-12 4 13-4m-13 4 12-4"/><path d="M988 132c4 2 9 5 13 5m-13-4 12 4"/></g><text x="39" fill="#1e1e1e" dominant-baseline="text-before-edge" font-family="Virgil, Segoe UI Emoji" font-size="16" style="white-space:pre" text-anchor="middle" transform="translate(18.03148016928759 181.3656203050103) rotate(0.2285524910029487 38.527984619140625 10)">0 to 360</text><text x="21" fill="#1e1e1e" dominant-baseline="text-before-edge" font-family="Virgil, Segoe UI Emoji" font-size="16" style="white-space:pre" text-anchor="middle" transform="translate(554.0418165778364 496.2545471191406) rotate(0 20.68798828125 10)">100%</text><g fill="none" stroke="#1e1e1e" stroke-linecap="round"><path d="M146 195c-6-4-25-24-35-30-10-5-22-4-26-5m59 35c-6-5-24-23-34-28-10-6-21-4-25-5m13-4-13 5m12-5-13 4"/><path d="M98 167c-4 0-6-1-13-4m12 5c-4-3-8-4-13-6"/></g><text x="52" fill="#1e1e1e" dominant-baseline="text-before-edge" font-family="Virgil, Segoe UI Emoji" font-size="16" style="white-space:pre" text-anchor="middle" transform="translate(47.77028388333781 393.300163269043) rotate(0 52.31195831298828 10)">50% to 55%</text><text x="45" fill="#1e1e1e" dominant-baseline="text-before-edge" font-family="Virgil, Segoe UI Emoji" font-size="16" style="white-space:pre" text-anchor="middle" transform="translate(717.4705580329145 510.13609313964866) rotate(0 45.1519775390625 10)">0% to 10%</text><text x="56" fill="#1e1e1e" dominant-baseline="text-before-edge" font-family="Virgil, Segoe UI Emoji" font-size="16" style="white-space:pre" text-anchor="middle" transform="translate(971.8642398769897 67.74420674641937) rotate(0 55.52796936035156 10)">90% to 100%</text><text x="45" fill="#1e1e1e" dominant-baseline="text-before-edge" font-family="Virgil, Segoe UI Emoji" font-size="16" style="white-space:pre" text-anchor="middle" transform="translate(1005.2167941982788 173.96296183268237) rotate(0 45.1519775390625 10)">0% to 10%</text></svg>