<?xml version="1.0" encoding="UTF-8"?>
<svg xmlns="http://www.w3.org/2000/svg" viewBox="0 0 302.97 302.97">
    <defs>
        <style>
            path {
                fill: none;
                stroke: #231f20;
                stroke-miterlimit: 10;
                stroke-width: 1px;
            }
        </style>
    </defs>
    <path style="fill:var(--c-s1)" d="M71.84,279.66l79.32-127.31,.42,.79-5,149.07c-26-.59-51.95-7.87-74.73-22.55Z" />
    <path style="fill:var(--c-s2)" d="M18.42,222.66l132.35-70.6-.03,.89-78.87,126.6c-22.22-13.51-41.05-32.79-53.45-56.89Z" />
    <path style="fill:var(--c-s3)" d="M.66,146.59l149.92,5.03-.48,.75L18.5,222.59C6.01,199.77-.65,173.67,.66,146.59Z" />
    <path style="fill:var(--c-s4)" d="M23.32,71.84l127.31,79.32-.79,.42L.77,146.57c.59-26,7.87-51.95,22.55-74.73Z" />
    <path style="fill:var(--c-s5)" d="M80.31,18.42l70.6,132.35-.89-.03L23.42,71.87c13.51-22.22,32.79-41.05,56.89-53.45Z" />
    <path style="fill:var(--c-s6)" d="M156.38,.66l-5.03,149.92-.75-.48L80.39,18.5C103.2,6.01,129.31-.65,156.38,.66Z" />
    <path style="fill:var(--c-s7)" d="M231.13,23.32l-79.32,127.31-.42-.79L156.4,.77c26,.59,51.95,7.87,74.73,22.55Z" />
    <path style="fill:var(--c-s8)" d="M284.55,80.31l-132.35,70.6,.03-.89L231.1,23.42c22.22,13.51,41.05,32.79,53.45,56.89Z" />
    <path style="fill:var(--c-s9)" d="M302.31,156.38l-149.92-5.03,.48-.75,131.6-70.2c12.49,22.81,19.16,48.92,17.84,75.99Z" />
    <path style="fill:var(--c-s10)" d="M279.66,231.13l-127.31-79.32,.79-.42,149.07,5c-.59,26-7.87,51.95-22.55,74.73Z" />
    <path style="fill:var(--c-s11)" d="M222.66,284.55l-70.6-132.35,.89,.03,126.6,78.87c-13.51,22.22-32.79,41.05-56.89,53.45Z" />
    <path style="fill:var(--c-s12)" d="M146.59,302.31l5.03-149.92,.75,.48,70.2,131.6c-22.81,12.49-48.92,19.16-75.99,17.84Z" />
</svg>